<?xml version="1.0" encoding="UTF-8"?>
<svg version="1.1" xmlns="http://www.w3.org/2000/svg" width="130" height="150">
<path d="M0 0 C40 0 40 0 50 3 C50 3.66 50 4.32 50 5 C50.5775 5.2475 51.155 5.495 51.75 5.75 C54.32939979 7.18299988 56.06121592 8.78424676 58 11 C58 11.66 58 12.32 58 13 C58.66 13 59.32 13 60 13 C60.66 15.31 61.32 17.62 62 20 C64.82537428 18.70986428 66.90934585 17.33680407 69.13671875 15.1796875 C69.71486328 14.64472656 70.29300781 14.10976563 70.88867188 13.55859375 C72.08145821 12.44221826 73.26144892 11.31200184 74.42773438 10.16796875 C77.73370067 7.15724311 80.02966082 5.61658849 84.58203125 5.5078125 C90.05963073 5.93306483 94.10463824 6.77955669 97.9296875 10.90625 C98.92454419 12.09332139 99.90586121 13.29184094 100.875 14.5 C101.65109619 15.43525513 101.65109619 15.43525513 102.44287109 16.3894043 C106.19686869 20.93301175 109.87138252 25.54463604 113.4765625 30.20703125 C114.8905779 32.10863755 114.8905779 32.10863755 117 33 C117 34.65 117 36.3 117 38 C116.01 38.495 116.01 38.495 115 39 C115.495 42.96 115.495 42.96 116 47 C115.278125 47.4125 114.55625 47.825 113.8125 48.25 C110.52500217 50.21891338 110.52500217 50.21891338 106 54 C111.28 54.33 116.56 54.66 122 55 C123.99888872 73.20126317 125.73402293 91.42700978 127.39834595 109.66162109 C127.63280309 112.22077079 127.86976259 114.77969246 128.10922241 117.33837891 C128.44972941 120.98539194 128.7807449 124.63314998 129.109375 128.28125 C129.21439835 129.3885144 129.31942169 130.49577881 129.42762756 131.63659668 C129.51821945 132.66466431 129.60881134 133.69273193 129.70214844 134.75195312 C129.7841449 135.64821411 129.86614136 136.5444751 129.95062256 137.46789551 C130.00248153 140.12725414 129.61618457 142.41937811 129 145 C125.70840684 145.05790353 122.41694397 145.09356261 119.125 145.125 C118.18785156 145.14175781 117.25070313 145.15851563 116.28515625 145.17578125 C114.94130859 145.18544922 114.94130859 145.18544922 113.5703125 145.1953125 C112.74289551 145.20578613 111.91547852 145.21625977 111.06298828 145.22705078 C109 145 109 145 107 143 C106.62648135 140.51506083 106.36690408 138.11342607 106.18359375 135.61328125 C106.12220718 134.87804733 106.06082062 134.14281342 105.99757385 133.38529968 C105.80235242 131.02830475 105.61948028 128.67055094 105.4375 126.3125 C105.24956142 123.97255613 105.05905179 121.63284493 104.86671448 119.29325867 C104.74784752 117.83762621 104.63190154 116.38175118 104.51939392 114.9256134 C104.17417865 110.58088881 103.65697862 106.3056127 103 102 C102.68772461 102.88147705 102.37544922 103.7629541 102.05371094 104.67114258 C100.87617421 107.99434995 99.6982281 111.31741165 98.52001953 114.64038086 C98.01367481 116.06870963 97.50748543 117.49709348 97.00146484 118.92553711 C94.03588119 127.29670442 91.04902496 135.65873885 88 144 C83.05 144 78.1 144 73 144 C71.82784886 140.56428147 70.66207853 137.1266243 69.5 133.6875 C69.16613281 132.71103516 68.83226563 131.73457031 68.48828125 130.72851562 C68.17246094 129.79072266 67.85664062 128.85292969 67.53125 127.88671875 C67.23798828 127.02264404 66.94472656 126.15856934 66.64257812 125.26831055 C66 123 66 123 66 120 C65.34 119.67 64.68 119.34 64 119 C63.25390625 117.03125 63.25390625 117.03125 62.5625 114.5 C61.61229303 111.06839539 60.57666822 107.68603717 59.44506836 104.31054688 C59.17456161 103.50258667 58.90405487 102.69462646 58.62535095 101.86218262 C58.41898514 101.24766235 58.21261932 100.63314209 58 100 C57.91435791 101.1552417 57.82871582 102.3104834 57.74047852 103.50073242 C57.42117804 107.79670573 57.0977951 112.09236373 56.77319336 116.38793945 C56.63341109 118.24527809 56.49472831 120.10269983 56.35717773 121.96020508 C56.15899718 124.63385387 55.95683294 127.30717651 55.75390625 129.98046875 C55.6934462 130.80773972 55.63298615 131.63501068 55.57069397 132.48735046 C54.93413744 140.76899736 54.93413744 140.76899736 54 144 C47.8149317 147.09253415 38.65538855 146.3929883 32 145 C31.07877789 141.96536061 30.97943261 139.61459333 31.33984375 136.47265625 C31.48015015 135.16893066 31.48015015 135.16893066 31.62329102 133.83886719 C31.72697998 132.92266602 31.83066895 132.00646484 31.9375 131.0625 C32.71607107 123.71825369 33.19051537 116.5913909 32.97265625 109.203125 C33 107 33 107 34 106 C34.29997524 103.85912212 34.53972197 101.70974887 34.75390625 99.55859375 C34.88603516 98.25341797 35.01816406 96.94824219 35.15429688 95.60351562 C35.29045954 94.21485306 35.42652599 92.82618105 35.5625 91.4375 C35.70206915 90.04488125 35.84203791 88.65230248 35.98242188 87.25976562 C36.32555986 83.84021808 36.66456409 80.42031027 37 77 C36.01 76.505 36.01 76.505 35 76 C34.7525 75.29875 34.505 74.5975 34.25 73.875 C32.28387379 69.35290972 28.95609998 65.82944603 25.37109375 62.4765625 C24 61 24 61 23 58 C23.00785522 59.35532837 23.00785522 59.35532837 23.01586914 60.73803711 C23.03287686 64.07951489 23.04543333 67.42094692 23.05493164 70.76245117 C23.05997101 72.21070073 23.06680253 73.65894517 23.07543945 75.10717773 C23.08752247 77.18474588 23.09323211 79.26224697 23.09765625 81.33984375 C23.10551147 83.21724243 23.10551147 83.21724243 23.11352539 85.13256836 C23 88 23 88 22 89 C14.74 89 7.48 89 0 89 C0 59.63 0 30.26 0 0 Z M84 10 C84.33 10.66 84.66 11.32 85 12 C85.99 11.67 86.98 11.34 88 11 C86.68 10.67 85.36 10.34 84 10 Z M22 19 C22 25.27 22 31.54 22 38 C29.67122574 38.40058341 29.67122574 38.40058341 36 36 C38.66773607 31.9983959 38.71478813 28.70568852 38 24 C36.12379387 21.49839182 34.76108697 20.38054348 32 19 C30.29297265 18.93003986 28.58331997 18.91559846 26.875 18.9375 C25.26625 18.958125 23.6575 18.97875 22 19 Z M87 31 C86.67 31.66 86.34 32.32 86 33 C86.99 32.67 87.98 32.34 89 32 C88.34 31.67 87.68 31.34 87 31 Z M94 34 C93.67 34.66 93.34 35.32 93 36 C93.99 35.67 94.98 35.34 96 35 C95.34 34.67 94.68 34.34 94 34 Z M61 37 C60.1000497 38.18986718 59.23084193 39.40302249 58.375 40.625 C54.60906765 45.74303818 50.26639495 49.48907003 45 53 C46.96535717 55.41122368 46.96535717 55.41122368 50.6953125 55.1953125 C52.17200108 55.182009 53.64862358 55.15814835 55.125 55.125 C56.25615234 55.11146484 56.25615234 55.11146484 57.41015625 55.09765625 C59.27357254 55.0740687 61.13682593 55.03819719 63 55 C63.15275391 55.63599121 63.30550781 56.27198242 63.46289062 56.92724609 C65.46955468 64.80269594 68.35195229 72.14316777 71.5 79.625 C74.59062305 87.0195411 77.58716248 94.35391354 80 102 C83.30805499 98.27345612 84.65011245 94.00380087 86.25 89.375 C86.53101563 88.59898438 86.81203125 87.82296875 87.1015625 87.0234375 C87.79823689 85.03688081 88.40621684 83.01969905 89 81 C88.67 80.34 88.34 79.68 88 79 C88.66 79 89.32 79 90 79 C90.6987693 77.23358317 91.38366583 75.46167336 92.0625 73.6875 C92.44535156 72.70136719 92.82820313 71.71523437 93.22265625 70.69921875 C94.29389848 67.93766737 94.29389848 67.93766737 93 65 C92.34 65.66 91.68 66.32 91 67 C88.6875 67.0625 88.6875 67.0625 86 66 C84.53058014 64.24509285 83.31575103 62.44276306 82.11328125 60.49609375 C81.74589844 60.00238281 81.37851563 59.50867188 81 59 C80.34 59 79.68 59 79 59 C78.73058594 58.42378906 78.46117187 57.84757812 78.18359375 57.25390625 C76.9793982 54.96076819 75.62488595 53.00080358 74.0625 50.9375 C73.30646484 49.93009766 73.30646484 49.93009766 72.53515625 48.90234375 C71.11379251 47.14101006 69.60704442 45.58918837 68 44 C67.484375 43.278125 66.96875 42.55625 66.4375 41.8125 C65.963125 41.214375 65.48875 40.61625 65 40 C64.34 40 63.68 40 63 40 C62.67 39.01 62.34 38.02 62 37 C61.67 37 61.34 37 61 37 Z " fill="#1A492D" transform="translate(0,2)"/>
<path d="M0 0 C0.66 0.33 1.32 0.66 2 1 C2 1.66 2 2.32 2 3 C2.66 3 3.32 3 4 3 C4.66 5.31 5.32 7.62 6 10 C6.99 10 7.98 10 9 10 C8.34 11.98 7.68 13.96 7 16 C7.66 16 8.32 16 9 16 C9 16.99 9 17.98 9 19 C9.66 19 10.32 19 11 19 C11 19.66 11 20.32 11 21 C11.99 21 12.98 21 14 21 C14.4021875 22.1446875 14.4021875 22.1446875 14.8125 23.3125 C15.95800967 25.90496926 16.99711522 27.08815544 19 29 C19 29.66 19 30.32 19 31 C19.66 31 20.32 31 21 31 C21.268125 31.639375 21.53625 32.27875 21.8125 32.9375 C22.88667752 35.33131686 22.88667752 35.33131686 26 36 C27.04644066 37.63790712 28.0398183 39.31008021 29 41 C31.52975984 44.55231423 31.52975984 44.55231423 35 47 C35 46.34 35 45.68 35 45 C35.78375 44.7525 36.5675 44.505 37.375 44.25 C40.11976952 43.27318667 40.11976952 43.27318667 41 41 C42.40253926 38.19492148 44.10566526 37.98830942 47 37 C47.99 36.34 48.98 35.68 50 35 C50 35.66 50 36.32 50 37 C50.99 36.34 51.98 35.68 53 35 C53 34.01 53 33.02 53 32 C53.9590625 31.7525 53.9590625 31.7525 54.9375 31.5 C57.16119241 30.218214 57.16119241 30.218214 57.48828125 28.0859375 C57.7275978 26.06424845 57.86893028 24.03158061 58 22 C58.99 22.33 59.98 22.66 61 23 C61 24.65 61 26.3 61 28 C60.01 28.495 60.01 28.495 59 29 C59.495 32.96 59.495 32.96 60 37 C59.278125 37.4125 58.55625 37.825 57.8125 38.25 C54.52500217 40.21891338 54.52500217 40.21891338 50 44 C55.28 44.33 60.56 44.66 66 45 C67.36211213 54.79018093 68.30530747 64.09446878 68 74 C66 72 66 72 65.8046875 68.9609375 C65.82789062 67.77757813 65.85109375 66.59421875 65.875 65.375 C65.89304687 64.18648438 65.91109375 62.99796875 65.9296875 61.7734375 C65.95289062 60.85820313 65.97609375 59.94296875 66 59 C65.34 59 64.68 59 64 59 C64.020625 58.13375 64.04125 57.2675 64.0625 56.375 C64.07371955 52.54132175 64.07371955 52.54132175 63 47 C57.39 47 51.78 47 46 47 C46 46.34 46 45.68 46 45 C44.02 45.66 42.04 46.32 40 47 C40.5878125 48.11375 40.5878125 48.11375 41.1875 49.25 C42 52 42 52 40.75 54.3125 C39 56 39 56 37 56 C36.34 56.66 35.68 57.32 35 58 C32.6875 58.0625 32.6875 58.0625 30 57 C28.58272355 55.36333091 27.43182534 53.64539451 26.25 51.83203125 C24.47692348 49.23336597 22.24768269 47.19149062 20 45 C15 39.49315068 15 39.49315068 15 37 C14.01 36.67 13.02 36.34 12 36 C10.9935725 34.33720673 9.99414593 32.67016516 9 31 C6.93045153 29.21655822 6.93045153 29.21655822 5 28 C3.68 29.98 2.36 31.96 1 34 C0.34 33.01 -0.32 32.02 -1 31 C0.375 27.3125 0.375 27.3125 2 24 C2.66 24 3.32 24 4 24 C3.7215625 22.7934375 3.7215625 22.7934375 3.4375 21.5625 C2.90389972 17.21746916 3.3774296 13.31010276 4 9 C3.34 8.67 2.68 8.34 2 8 C2 7.01 2 6.02 2 5 C1.34 4.67 0.68 4.34 0 4 C0 2.68 0 1.36 0 0 Z " fill="#1B442C" transform="translate(56,12)"/>
<path d="M0 0 C13 0 13 0 15 1 C11.375 4 11.375 4 8 4 C8 4.99 8 5.98 8 7 C7.01 7 6.02 7 5 7 C4.67 8.32 4.34 9.64 4 11 C6.475 11.495 6.475 11.495 9 12 C10.22578535 15.67735605 9.46596728 16.55066523 8 20 C8 20.99 8 21.98 8 23 C7.34 23 6.68 23 6 23 C6 23.66 6 24.32 6 25 C6.66 25.33 7.32 25.66 8 26 C8.33 25.34 8.66 24.68 9 24 C11.0625 23.375 11.0625 23.375 13 23 C13 24.65 13 26.3 13 28 C12.01 28 11.02 28 10 28 C10 28.99 10 29.98 10 31 C10.763125 30.773125 11.52625 30.54625 12.3125 30.3125 C13.199375 30.209375 14.08625 30.10625 15 30 C16.5625 31.4375 16.5625 31.4375 18 33 C19.32 33 20.64 33 22 33 C22.20625 32.401875 22.4125 31.80375 22.625 31.1875 C24.50349519 28.19898492 26.86809171 27.5339959 30 26 C31.04115841 24.69855198 32.05377841 23.37202131 33 22 C33.66 22 34.32 22 35 22 C35 21.34 35 20.68 35 20 C36.32 20 37.64 20 39 20 C40 23 40 23 39.3125 25.5 C37.87468033 28.23870413 36.44957222 29.20364704 34 31 C34 31.99 34 32.98 34 34 C33.21625 34.12375 32.4325 34.2475 31.625 34.375 C28.85942178 34.79117993 28.85942178 34.79117993 27 37 C25.68 37 24.36 37 23 37 C22.814375 37.928125 22.814375 37.928125 22.625 38.875 C22 41 22 41 20 43 C18.68 43 17.36 43 16 43 C16 43.66 16 44.32 16 45 C12.77651004 43.92550335 11.95861919 43.13675431 9.8125 40.625 C9.01779297 39.71621094 9.01779297 39.71621094 8.20703125 38.7890625 C7 37 7 37 7 34 C5.68 33.67 4.36 33.34 3 33 C2.67 31.68 2.34 30.36 2 29 C1.34 29 0.68 29 0 29 C-5 23.76190476 -5 23.76190476 -5 19 C-5.99 19 -6.98 19 -8 19 C-8 18.34 -8 17.68 -8 17 C-8.66 17 -9.32 17 -10 17 C-10 16.01 -10 15.02 -10 14 C-10.66 14 -11.32 14 -12 14 C-9.99287411 5.81710214 -9.99287411 5.81710214 -7 4 C-3.8125 3.8125 -3.8125 3.8125 -1 4 C-0.67 2.68 -0.34 1.36 0 0 Z M35 31 C37 32 37 32 37 32 Z " fill="#1A482C" transform="translate(75,14)"/>
<path d="M0 0 C40 0 40 0 44 2 C30.43483597 3.6956455 16.6707311 3 3 3 C3 30.39 3 57.78 3 86 C8.61 86 14.22 86 20 86 C20 75.77 20 65.54 20 55 C26 57 26 57 28 58 C28 59.98 28 61.96 28 64 C24.125 61.375 24.125 61.375 23 58 C23.00785522 59.35532837 23.00785522 59.35532837 23.01586914 60.73803711 C23.03287686 64.07951489 23.04543333 67.42094692 23.05493164 70.76245117 C23.05997101 72.21070073 23.06680253 73.65894517 23.07543945 75.10717773 C23.08752247 77.18474588 23.09323211 79.26224697 23.09765625 81.33984375 C23.10551147 83.21724243 23.10551147 83.21724243 23.11352539 85.13256836 C23 88 23 88 22 89 C14.74 89 7.48 89 0 89 C0 59.63 0 30.26 0 0 Z " fill="#142A1D" transform="translate(0,2)"/>
<path d="M0 0 C2.35964273 0.40683495 3.85934088 0.89814339 5.8125 2.3125 C7 4 7 4 6.8125 6.0625 C6 8 6 8 4 10 C4.33 10.99 4.66 11.98 5 13 C6.98 12.34 8.96 11.68 11 11 C11.99 12.485 11.99 12.485 13 14 C11.16019395 16.22713364 10.36104804 16.9471637 7.4375 17.375 C6.633125 17.58125 5.82875 17.7875 5 18 C3.62533375 20.47636012 3.62533375 20.47636012 3 23 C-2.75 22.25 -2.75 22.25 -5 20 C-6.32 20 -7.64 20 -9 20 C-9 19.01 -9 18.02 -9 17 C-8.01 17 -7.02 17 -6 17 C-6.33 15.68 -6.66 14.36 -7 13 C-7.598125 13.350625 -8.19625 13.70125 -8.8125 14.0625 C-11 15 -11 15 -14 14 C-13.67 13.34 -13.34 12.68 -13 12 C-12.34 12 -11.68 12 -11 12 C-11.33 10.68 -11.66 9.36 -12 8 C-10.6696875 8.433125 -10.6696875 8.433125 -9.3125 8.875 C-8.219375 8.91625 -7.12625 8.9575 -6 9 C-3.05391242 6.11938104 -1.30510663 3.91531989 0 0 Z M0 11 C-0.33 11.66 -0.66 12.32 -1 13 C-0.01 12.67 0.98 12.34 2 12 C1.34 11.67 0.68 11.34 0 11 Z " fill="#163522" transform="translate(94,25)"/>
<path d="M0 0 C0 3 0 3 -1.3125 4.6875 C-3 6 -3 6 -6 6 C-7.81772642 10.20349235 -8.48844712 12.53465864 -7 17 C-8.3125 19.1875 -8.3125 19.1875 -10 21 C-10.66 21 -11.32 21 -12 21 C-12.66 21.66 -13.32 22.32 -14 23 C-16.3125 23.0625 -16.3125 23.0625 -19 22 C-20.41515857 20.36577663 -21.56395815 18.65164926 -22.7421875 16.83984375 C-24.51809481 14.24216567 -26.75135237 12.1894727 -29 10 C-30.02813611 8.68824014 -31.04084432 7.3630107 -32 6 C-31.67 5.34 -31.34 4.68 -31 4 C-29.68 4 -28.36 4 -27 4 C-26.855625 4.928125 -26.71125 5.85625 -26.5625 6.8125 C-26.07899889 10.00725111 -26.07899889 10.00725111 -25 13 C-21.48809191 14.22969878 -21.48809191 14.22969878 -18 15 C-19.98 11.37 -21.96 7.74 -24 4 C-19.94882524 6.02558738 -18.67671889 7.52026544 -16 11 C-15.34 11.33 -14.68 11.66 -14 12 C-14 11.34 -14 10.68 -14 10 C-13.21625 9.7525 -12.4325 9.505 -11.625 9.25 C-8.88023048 8.27318667 -8.88023048 8.27318667 -8 6 C-6.6031991 3.2063982 -4.86839499 3.00393825 -2 2 C-1.34 1.34 -0.68 0.68 0 0 Z " fill="#173B26" transform="translate(105,47)"/>
<path d="M0 0 C0.66 0.33 1.32 0.66 2 1 C2 1.66 2 2.32 2 3 C2.66 3 3.32 3 4 3 C4.66 5.31 5.32 7.62 6 10 C6.99 10 7.98 10 9 10 C8.34 11.98 7.68 13.96 7 16 C7.66 16 8.32 16 9 16 C9 16.99 9 17.98 9 19 C9.66 19 10.32 19 11 19 C11 19.66 11 20.32 11 21 C11.99 21 12.98 21 14 21 C14.4021875 22.1446875 14.4021875 22.1446875 14.8125 23.3125 C15.95800967 25.90496926 16.99711522 27.08815544 19 29 C19 29.66 19 30.32 19 31 C19.66 31 20.32 31 21 31 C22.32 33.31 23.64 35.62 25 38 C20.96472554 36.4451236 18.92491445 33.82178919 16.25 30.5 C15.45078125 29.5203125 14.6515625 28.540625 13.828125 27.53125 C12 25 12 25 12 23 C10.35 23 8.7 23 7 23 C7.66 25.31 8.32 27.62 9 30 C8.34 30 7.68 30 7 30 C6.34 29.34 5.68 28.68 5 28 C3.68 29.98 2.36 31.96 1 34 C0.34 33.01 -0.32 32.02 -1 31 C0.375 27.3125 0.375 27.3125 2 24 C2.66 24 3.32 24 4 24 C3.7215625 22.7934375 3.7215625 22.7934375 3.4375 21.5625 C2.90389972 17.21746916 3.3774296 13.31010276 4 9 C3.34 8.67 2.68 8.34 2 8 C2 7.01 2 6.02 2 5 C1.34 4.67 0.68 4.34 0 4 C0 2.68 0 1.36 0 0 Z " fill="#162C1F" transform="translate(56,12)"/>
<path d="M0 0 C1.5159375 0.2475 1.5159375 0.2475 3.0625 0.5 C3.701875 0.665 4.34125 0.83 5 1 C5.33 2.32 5.66 3.64 6 5 C-0.78700226 7.08830839 -6.98421718 7 -14 7 C-14.33 7.99 -14.66 8.98 -15 10 C-17.0625 10.6875 -17.0625 10.6875 -19 11 C-19.33 10.34 -19.66 9.68 -20 9 C-8.64432461 -1.69768299 -8.64432461 -1.69768299 0 0 Z M-5 4 C-4.67 4.66 -4.34 5.32 -4 6 C-3.01 5.67 -2.02 5.34 -1 5 C-2.32 4.67 -3.64 4.34 -5 4 Z " fill="#172D20" transform="translate(89,8)"/>
<path d="M0 0 C5.61 0.33 11.22 0.66 17 1 C18.98097151 6.01505303 20.95824964 11.03125807 22.92651367 16.05126953 C23.59661016 17.75717564 24.26878713 19.46226608 24.94311523 21.16650391 C25.91423094 23.62188576 26.87772899 26.08014206 27.83984375 28.5390625 C28.14091537 29.29555084 28.441987 30.05203918 28.75218201 30.83145142 C30.32881563 34.8841951 31.46764468 38.65092775 32 43 C30.2133211 40.31998165 29.0677863 37.96871256 27.875 35 C27.52179688 34.13375 27.16859375 33.2675 26.8046875 32.375 C26 30 26 30 26 27 C25.01 26.67 24.02 26.34 23 26 C23 25.34 23 24.68 23 24 C22.34 24 21.68 24 21 24 C20.505 19.05 20.505 19.05 20 14 C19.34 14 18.68 14 18 14 C17.66430703 12.37548581 17.3315204 10.75037083 17 9.125 C16.814375 8.22007813 16.62875 7.31515625 16.4375 6.3828125 C16 4 16 4 16 2 C10.72 2 5.44 2 0 2 C0 1.34 0 0.68 0 0 Z " fill="#122018" transform="translate(46,56)"/>
<path d="M0 0 C1.12329712 0.07069702 1.12329712 0.07069702 2.26928711 0.14282227 C3.07817383 0.19116211 3.88706055 0.23950195 4.72045898 0.28930664 C5.99566406 0.37341797 5.99566406 0.37341797 7.29663086 0.45922852 C8.57763672 0.53753906 8.57763672 0.53753906 9.88452148 0.61743164 C12.00135081 0.74751612 14.1177833 0.88402822 16.23413086 1.02172852 C17.63292524 10.75084299 18.53797833 20.16356601 18.23413086 30.02172852 C16.23413086 28.02172852 16.23413086 28.02172852 16.03881836 24.98266602 C16.06202148 23.79930664 16.08522461 22.61594727 16.10913086 21.39672852 C16.12717773 20.20821289 16.14522461 19.01969727 16.16381836 17.79516602 C16.18702148 16.87993164 16.21022461 15.96469727 16.23413086 15.02172852 C15.57413086 15.02172852 14.91413086 15.02172852 14.23413086 15.02172852 C14.25475586 14.15547852 14.27538086 13.28922852 14.29663086 12.39672852 C14.23667648 9.1591923 13.79996561 6.20287823 13.23413086 3.02172852 C12.24670898 3.04493164 11.25928711 3.06813477 10.24194336 3.09204102 C8.96061523 3.11008789 7.67928711 3.12813477 6.35913086 3.14672852 C4.44487305 3.1815332 4.44487305 3.1815332 2.49194336 3.21704102 C-0.76586914 3.02172852 -0.76586914 3.02172852 -2.76586914 1.02172852 C-1.76586914 0.02172852 -1.76586914 0.02172852 0 0 Z " fill="#16281D" transform="translate(105.765869140625,55.978271484375)"/>
<path d="M0 0 C2 3 2 3 2 6 C2.66 6 3.32 6 4 6 C4.12375 6.804375 4.2475 7.60875 4.375 8.4375 C4.684375 9.7059375 4.684375 9.7059375 5 11 C5.66 11.33 6.32 11.66 7 12 C7 12.99 7 13.98 7 15 C10.96 15 14.92 15 19 15 C19.66 13.02 20.32 11.04 21 9 C22.48576635 13.01156915 21.80747878 13.48130304 20 18 C15.05 18 10.1 18 5 18 C4.175 15.7725 3.35 13.545 2.5 11.25 C2.23896484 10.55551758 1.97792969 9.86103516 1.70898438 9.14550781 C0.50706036 5.83926285 0 3.57052204 0 0 Z " fill="#14241A" transform="translate(68,128)"/>
<path d="M0 0 C1.32 0.33 2.64 0.66 4 1 C4 1.99 4 2.98 4 4 C4.66 4 5.32 4 6 4 C6 4.66 6 5.32 6 6 C6.99 6 7.98 6 9 6 C9.268125 6.763125 9.53625 7.52625 9.8125 8.3125 C10.95800967 10.90496926 11.99711522 12.08815544 14 14 C14 14.66 14 15.32 14 16 C14.66 16 15.32 16 16 16 C17.32 18.31 18.64 20.62 20 23 C15.96472554 21.4451236 13.92491445 18.82178919 11.25 15.5 C10.05117187 14.03046875 10.05117187 14.03046875 8.828125 12.53125 C7 10 7 10 7 8 C4.69 7.67 2.38 7.34 0 7 C0 4.69 0 2.38 0 0 Z " fill="#0C2316" transform="translate(61,27)"/>
<path d="M0 0 C0.33 0 0.66 0 1 0 C1.22236782 3.06206505 1.42834898 6.12376646 1.625 9.1875 C1.68945312 10.05181641 1.75390625 10.91613281 1.8203125 11.80664062 C2.10046459 16.37662165 2.2531859 19.846226 0 24 C0.84820312 23.82597656 1.69640625 23.65195313 2.5703125 23.47265625 C6.15860955 22.97814151 9.27389883 23.10678663 12.875 23.4375 C14.02742188 23.53933594 15.17984375 23.64117187 16.3671875 23.74609375 C17.23601563 23.82988281 18.10484375 23.91367188 19 24 C19 24.33 19 24.66 19 25 C5.3667426 26.33257403 5.3667426 26.33257403 -1 25 C-1.97963374 21.82662906 -2.00148074 19.30840242 -1.66015625 16.015625 C-1.56669922 15.08105469 -1.47324219 14.14648438 -1.37695312 13.18359375 C-1.27318359 12.21550781 -1.16941406 11.24742187 -1.0625 10.25 C-0.96259766 9.26644531 -0.86269531 8.28289062 -0.75976562 7.26953125 C-0.51267098 4.84565041 -0.25920287 2.42261093 0 0 Z " fill="#0E1C13" transform="translate(33,122)"/>
<path d="M0 0 C2.35546875 0.15234375 2.35546875 0.15234375 5 1 C6.80078125 3.06640625 6.80078125 3.06640625 8.3125 5.5625 C8.82425781 6.38878906 9.33601563 7.21507812 9.86328125 8.06640625 C10.23839844 8.70449219 10.61351563 9.34257813 11 10 C10.01 11.485 10.01 11.485 9 13 C9 12.34 9 11.68 9 11 C7.8553125 10.566875 7.8553125 10.566875 6.6875 10.125 C4 9 4 9 1 7 C-0.1875 3.875 -0.1875 3.875 -1 1 C-0.67 0.67 -0.34 0.34 0 0 Z " fill="#1C482E" transform="translate(63,34)"/>
<path d="M0 0 C1.65 0 3.3 0 5 0 C5.33 1.65 5.66 3.3 6 5 C9.27773504 4.24849977 9.27773504 4.24849977 11 1 C10.56802365 5.7517398 9.67230705 7.92000054 6 11 C5.34 10.67 4.68 10.34 4 10 C4 9.01 4 8.02 4 7 C1.525 6.01 1.525 6.01 -1 5 C-0.67 3.35 -0.34 1.7 0 0 Z M2 11 C4 12 4 12 4 12 Z " fill="#154128" transform="translate(79,20)"/>
<path d="M0 0 C4.20172849 2.52103709 6.88106444 4.52669159 9 9 C9 9.66 9 10.32 9 11 C4.70057465 10.52228607 2.7064865 9.38310813 0 6 C-0.8125 3.875 -0.8125 3.875 -1 2 C-0.67 1.34 -0.34 0.68 0 0 Z " fill="#1A482D" transform="translate(78,51)"/>
<path d="M0 0 C0.33 0 0.66 0 1 0 C1.33 6.93 1.66 13.86 2 21 C1.01 20.67 0.02 20.34 -1 20 C-1 24.29 -1 28.58 -1 33 C-1.33 33 -1.66 33 -2 33 C-2.19393875 30.85473901 -2.37998676 28.70876323 -2.5625 26.5625 C-2.71912109 24.77005859 -2.71912109 24.77005859 -2.87890625 22.94140625 C-2.91886719 21.97074219 -2.95882812 21.00007813 -3 20 C-2.67 19.67 -2.34 19.34 -2 19 C-1.77428816 17.58879098 -1.60611651 16.16823957 -1.46484375 14.74609375 C-1.37783203 13.89208984 -1.29082031 13.03808594 -1.20117188 12.15820312 C-1.11416016 11.26037109 -1.02714844 10.36253906 -0.9375 9.4375 C-0.84662109 8.53580078 -0.75574219 7.63410156 -0.66210938 6.70507812 C-0.43746077 4.47041566 -0.21694231 2.23542161 0 0 Z " fill="#101F16" transform="translate(36,89)"/>
<path d="M0 0 C0.66 0.99 1.32 1.98 2 3 C3.98 2.34 5.96 1.68 8 1 C8.66 1.99 9.32 2.98 10 4 C7.93243723 6.7972908 6.85559629 7.02692273 3.3125 7.6875 C2.219375 7.790625 1.12625 7.89375 0 8 C0 6.68 0 5.36 0 4 C-1.65 4.33 -3.3 4.66 -5 5 C-3.35 3.35 -1.7 1.7 0 0 Z " fill="#162D1F" transform="translate(97,35)"/>
<path d="M0 0 C0.66 0 1.32 0 2 0 C3.25664978 2.90600261 4 4.79604584 4 8 C4.66 8.33 5.32 8.66 6 9 C7.28317892 12.84953676 7.06643637 15.94738135 7 20 C5 17 5 17 5 14 C4.34 13.67 3.68 13.34 3 13 C2.1484375 10.8203125 2.1484375 10.8203125 1.375 8.125 C1.11460938 7.24070312 0.85421875 6.35640625 0.5859375 5.4453125 C0 3 0 3 0 0 Z " fill="#162A1F" transform="translate(61,108)"/>
<path d="M0 0 C2 2 2 2 2.23046875 4.34765625 C2.20919922 5.69150391 2.20919922 5.69150391 2.1875 7.0625 C2.17783203 8.41021484 2.17783203 8.41021484 2.16796875 9.78515625 C2 12 2 12 1 13 C-3.73225005 13.33243079 -8.39288558 13.18893275 -13 12 C-13 11.67 -13 11.34 -13 11 C-8.71 11 -4.42 11 0 11 C0 7.37 0 3.74 0 0 Z " fill="#19271F" transform="translate(21,78)"/>
<path d="M0 0 C0.33 0.99 0.66 1.98 1 3 C1.66 3 2.32 3 3 3 C3 4.65 3 6.3 3 8 C5.95887459 8.08069658 8.9155659 8.14034665 11.875 8.1875 C12.71675781 8.21263672 13.55851562 8.23777344 14.42578125 8.26367188 C15.23144531 8.27333984 16.03710938 8.28300781 16.8671875 8.29296875 C17.61081543 8.3086792 18.35444336 8.32438965 19.12060547 8.34057617 C19.74080566 8.22818604 20.36100586 8.1157959 21 8 C21.66 7.01 22.32 6.02 23 5 C22.67 6.65 22.34 8.3 22 10 C18.70840684 10.05790353 15.41694397 10.09356261 12.125 10.125 C10.71927734 10.15013672 10.71927734 10.15013672 9.28515625 10.17578125 C7.94130859 10.18544922 7.94130859 10.18544922 6.5703125 10.1953125 C5.74289551 10.20578613 4.91547852 10.21625977 4.06298828 10.22705078 C2 10 2 10 0 8 C-0.26991906 5.31160615 -0.08737357 2.70858064 0 0 Z " fill="#0D1A13" transform="translate(107,137)"/>
<path d="M0 0 C13.39285714 0.80357143 13.39285714 0.80357143 17 3 C16.67 3.66 16.34 4.32 16 5 C15.44828125 4.68289062 14.8965625 4.36578125 14.328125 4.0390625 C11.71522011 2.87290025 9.59420998 2.59954289 6.75 2.375 C5.85796875 2.30023437 4.9659375 2.22546875 4.046875 2.1484375 C3.03367187 2.07496094 3.03367187 2.07496094 2 2 C2.04125 3.2375 2.0825 4.475 2.125 5.75 C2.24851563 9.455469 1.80568106 10.38863788 0 14 C0 9.38 0 4.76 0 0 Z " fill="#122B1D" transform="translate(20,19)"/>
<path d="M0 0 C3.1933419 5.74801541 3.06247739 10.88175635 2.5625 17.3125 C2.51029297 18.05306641 2.45808594 18.79363281 2.40429688 19.55664062 C2.27549848 21.37152709 2.13856738 23.18583325 2 25 C1.67 25 1.34 25 1 25 C0.15672251 16.64251778 -0.12190678 8.39802254 0 0 Z " fill="#111F17" transform="translate(105,111)"/>
<path d="M0 0 C1.65 0 3.3 0 5 0 C5.144375 0.928125 5.28875 1.85625 5.4375 2.8125 C5.92100111 6.00725111 5.92100111 6.00725111 7 9 C7.61875 9.268125 8.2375 9.53625 8.875 9.8125 C11.92295549 11.51576924 12.64076848 13.8737675 14 17 C13.34 17 12.68 17 12 17 C10.6559907 15.00715862 9.32458708 13.00580329 8 11 C6.35353315 9.31337542 4.68816933 7.64488294 3 6 C0 2.37931034 0 2.37931034 0 0 Z " fill="#0F1712" transform="translate(73,51)"/>
<path d="M0 0 C2.97 0 5.94 0 9 0 C9 0.66 9 1.32 9 2 C10.32 2 11.64 2 13 2 C13 2.66 13 3.32 13 4 C8.71 3.67 4.42 3.34 0 3 C0 2.01 0 1.02 0 0 Z " fill="#2E4137" transform="translate(80,8)"/>
<path d="M0 0 C1.42151345 2.84302691 1.23922606 4.83025472 1 8 C0.15794312 10.4429441 -0.87816208 12.66283767 -2 15 C-2.33 14.34 -2.66 13.68 -3 13 C-3.99 13.33 -4.98 13.66 -6 14 C-6 13.34 -6 12.68 -6 12 C-5.34 12 -4.68 12 -4 12 C-3.79503906 11.21753906 -3.59007813 10.43507813 -3.37890625 9.62890625 C-3.10949219 8.61699219 -2.84007813 7.60507813 -2.5625 6.5625 C-2.29566406 5.55316406 -2.02882813 4.54382813 -1.75390625 3.50390625 C-1 1 -1 1 0 0 Z " fill="#152A1D" transform="translate(94,69)"/>
<path d="M0 0 C0.99 0.33 1.98 0.66 3 1 C3 2.65 3 4.3 3 6 C2.01 6.495 2.01 6.495 1 7 C1 8.32 1 9.64 1 11 C-1.31 11.33 -3.62 11.66 -6 12 C-4.625 10 -4.625 10 -3 8 C-2.34 8 -1.68 8 -1 8 C-0.67 5.36 -0.34 2.72 0 0 Z " fill="#16281D" transform="translate(114,34)"/>
<path d="M0 0 C2.35964273 0.40683495 3.85934088 0.89814339 5.8125 2.3125 C7 4 7 4 6.875 6.125 C6.441875 7.053125 6.441875 7.053125 6 8 C5.01 8.33 4.02 8.66 3 9 C3 7.68 3 6.36 3 5 C1.68 4.67 0.36 4.34 -1 4 C-0.67 2.68 -0.34 1.36 0 0 Z " fill="#142E1F" transform="translate(94,25)"/>
<path d="M0 0 C0.33 1.32 0.66 2.64 1 4 C0.278125 4.4125 -0.44375 4.825 -1.1875 5.25 C-3.97969862 6.98736803 -6.47012585 8.90381857 -9 11 C-9.33 10.01 -9.66 9.02 -10 8 C-9.34 7.67 -8.68 7.34 -8 7 C-7.34 6.01 -6.68 5.02 -6 4 C-5.01 4 -4.02 4 -3 4 C-2.67 3.01 -2.34 2.02 -2 1 C-1.34 0.67 -0.68 0.34 0 0 Z " fill="#162E20" transform="translate(115,45)"/>
<path d="M0 0 C5.75 1.875 5.75 1.875 8 3 C8 4.98 8 6.96 8 9 C4.125 6.375 4.125 6.375 3 3 C2.34 3.99 1.68 4.98 1 6 C0.4465236 3.92446352 0 2.15634036 0 0 Z " fill="#163122" transform="translate(20,57)"/>
<path d="M0 0 C2.91785009 1.14629825 4.05695061 2.07474768 6 4.625 C6.66 5.40875 7.32 6.1925 8 7 C9.32 7 10.64 7 12 7 C11.67 7.99 11.34 8.98 11 10 C9.68 10 8.36 10 7 10 C5.078125 8.06640625 5.078125 8.06640625 3.25 5.5625 C2.63640625 4.73878906 2.0228125 3.91507813 1.390625 3.06640625 C0 1 0 1 0 0 Z " fill="#092212" transform="translate(81,51)"/>
<path d="M0 0 C0.66 0.33 1.32 0.66 2 1 C2.33333333 3.33333333 2.66666667 5.66666667 3 8 C3.66 8.33 4.32 8.66 5 9 C4.25 10.9375 4.25 10.9375 3 13 C0.875 13.75 0.875 13.75 -1 14 C-0.67 13.01 -0.34 12.02 0 11 C0.0685495 9.10529184 0.08480372 7.2083166 0.0625 5.3125 C0.05347656 4.31863281 0.04445312 3.32476563 0.03515625 2.30078125 C0.02355469 1.54152344 0.01195312 0.78226563 0 0 Z " fill="#14271B" transform="translate(37,24)"/>
<path d="M0 0 C1.65 0 3.3 0 5 0 C5 1.32 5 2.64 5 4 C3.68 4 2.36 4 1 4 C1 4.66 1 5.32 1 6 C0.34 5.67 -0.32 5.34 -1 5 C-0.67 3.35 -0.34 1.7 0 0 Z " fill="#1B422D" transform="translate(92,30)"/>
<path d="M0 0 C0.9590625 0.3403125 0.9590625 0.3403125 1.9375 0.6875 C2.9275 0.6875 3.9175 0.6875 4.9375 0.6875 C1.3125 3.6875 1.3125 3.6875 -2.0625 3.6875 C-2.3925 4.3475 -2.7225 5.0075 -3.0625 5.6875 C-4.0525 4.6975 -5.0425 3.7075 -6.0625 2.6875 C-2.60965026 -0.39540155 -2.60965026 -0.39540155 0 0 Z " fill="#224B34" transform="translate(85.0625,14.3125)"/>
<path d="M0 0 C0.66 1.32 1.32 2.64 2 4 C1.38125 4.763125 0.7625 5.52625 0.125 6.3125 C-2.05597052 8.99625809 -2.05597052 8.99625809 -4 12 C-3.5317879 7.22423661 -2.75668002 3.95523655 0 0 Z " fill="#15241B" transform="translate(89,83)"/>
<path d="M0 0 C2.97 0 5.94 0 9 0 C8.67 0.99 8.34 1.98 8 3 C5.69 3.33 3.38 3.66 1 4 C0.67 2.68 0.34 1.36 0 0 Z " fill="#162F20" transform="translate(22,40)"/>
<path d="M0 0 C1.65 0 3.3 0 5 0 C5 1.98 5 3.96 5 6 C3.35 6 1.7 6 0 6 C-1.24546405 3.50907189 -0.7767578 2.58919267 0 0 Z " fill="#09110C" transform="translate(79,20)"/>
<path d="M0 0 C0.66 0 1.32 0 2 0 C2 1.98 2 3.96 2 6 C1.34 6 0.68 6 0 6 C-0.66 7.65 -1.32 9.3 -2 11 C-3.13643966 7.59068103 -2.86747764 6.99664544 -1.5625 3.8125 C-1.13130859 2.73935547 -1.13130859 2.73935547 -0.69140625 1.64453125 C-0.46324219 1.10183594 -0.23507813 0.55914062 0 0 Z " fill="#122118" transform="translate(83,96)"/>
<path d="M0 0 C3.67230705 3.07999946 4.56802365 5.2482602 5 10 C-0.73529412 4.70588235 -0.73529412 4.70588235 -1 1 C-0.67 0.67 -0.34 0.34 0 0 Z " fill="#183021" transform="translate(75,94)"/>
<path d="M0 0 C0.33 0.66 0.66 1.32 1 2 C-0.375 4 -0.375 4 -2 6 C-2.66 6 -3.32 6 -4 6 C-4.66 6.66 -5.32 7.32 -6 8 C-6.99 7.67 -7.98 7.34 -9 7 C-6.03 4.69 -3.06 2.38 0 0 Z " fill="#0A110D" transform="translate(97,62)"/>
<path d="M0 0 C0.33 0 0.66 0 1 0 C1 3.63 1 7.26 1 11 C0.01 10.67 -0.98 10.34 -2 10 C-1.34 6.7 -0.68 3.4 0 0 Z " fill="#1B3E2A" transform="translate(126,119)"/>
<path d="M0 0 C2.31 0.33 4.62 0.66 7 1 C6.649375 1.61875 6.29875 2.2375 5.9375 2.875 C5.4734375 3.926875 5.4734375 3.926875 5 5 C5.33 5.66 5.66 6.32 6 7 C3 6 3 6 1.3125 2.9375 C0.879375 1.968125 0.44625 0.99875 0 0 Z " fill="#13271B" transform="translate(65,42)"/>
<path d="M0 0 C1.65 0 3.3 0 5 0 C5 1.65 5 3.3 5 5 C4.01 5 3.02 5 2 5 C1.34 3.35 0.68 1.7 0 0 Z " fill="#14271C" transform="translate(73,51)"/>
<path d="M0 0 C0 1.32 0 2.64 0 4 C-1.65 3.67 -3.3 3.34 -5 3 C-5 2.34 -5 1.68 -5 1 C-3 0 -3 0 0 0 Z " fill="#1E4830" transform="translate(97,39)"/>
<path d="" fill="#130D0D" transform="translate(0,0)"/>
</svg>
